# xmcd
#
# Track frame offsets:
#	150
#	15877
#	31183
#	47124
#	64156
#	83701
#	108180
#	124653
#	141154
#	159714
#	175410
#	192085
#	204969
#	220210
#	239119
#	256903
#	271646
#	286250
#	304663
#	318119
#
# Disc length: 4483 seconds
#
# Revision: 0
# Processed by: cddbd v1.5.1PL2 Copyright (c) Steve Scherf et al.
# Submitted via: audiograbber 1.83.01
#
DISCID=0e118114
DTITLE=diverse Interpreten - Oldies 3
DYEAR=1900
DGENRE=
TTITLE0=Am Tag Als Conny Kramer Starb
TTITLE1=Ein Bett im Kornfeld
TTITLE2=Lambada
TTITLE3=Mia
TTITLE4=Walking In Memphis
TTITLE5=Westernhagen - Freiheit
TTITLE6=Electronic Lady
TTITLE7=maid of orleans
TTITLE8=Hang On Sloopy
TTITLE9=Tonight
TTITLE10=i will survive
TTITLE11=John Travolta and Olivia Newton John - You're The One That I Want
TTITLE12=The Unicorn Song
TTITLE13=Waiting For Tonight
TTITLE14=Summer In The City
TTITLE15=Almost Heaven (West  Virginia)
TTITLE16=Take Me Home Country Roads
TTITLE17=Give Peace A Chance
TTITLE18=Stop The Cavalry
TTITLE19=One Night love
EXTD=
EXTT0=
EXTT1=
EXTT2=
EXTT3=
EXTT4=
EXTT5=
EXTT6=
EXTT7=
EXTT8=
EXTT9=
EXTT10=
EXTT11=
EXTT12=
EXTT13=
EXTT14=
EXTT15=
EXTT16=
EXTT17=
EXTT18=
EXTT19=
PLAYORDER=
